<?xml version="1.0" encoding="utf-8"?>
<!-- Generator: Adobe Illustrator 18.0.0, SVG Export Plug-In . SVG Version: 6.00 Build 0)  -->
<!DOCTYPE svg PUBLIC "-//W3C//DTD SVG 1.1//EN" "http://www.w3.org/Graphics/SVG/1.1/DTD/svg11.dtd">
<svg version="1.1" id="Layer_1" xmlns="http://www.w3.org/2000/svg" xmlns:xlink="http://www.w3.org/1999/xlink" x="0px" y="0px"
	 viewBox="0 0 9212.6 7086.6" enable-background="new 0 0 9212.6 7086.6" xml:space="preserve" fill="#000">
<g>
	<rect x="7290.9" y="3099.8" width="570.4" height="135.2"/>
	<rect x="7504.8" y="3116.9" width="142.6" height="451.2"/>
	<rect x="8217.2" y="3338.2" width="920.1" height="120.4"/>
	<rect x="8217.2" y="3527.6" width="920.1" height="125.5"/>
	<rect x="8118.6" y="3914.9" width="1112.3" height="125.5"/>
	<rect x="8217.2" y="3726.7" width="920.1" height="120.4"/>
	<polygon points="6877.9,3099.8 7028.5,3099.8 7126.6,3295.5 6976,3295.5 	"/>
	<rect x="6926.4" y="3391.3" width="205.3" height="135.2"/>
	<polygon points="6977.8,3620.6 7118.1,3620.6 7008,4203.5 6868.2,4203.5 	"/>
	<polygon points="7500.8,3570.4 7650.3,3570.4 7339.4,4203.5 7189.9,4203.5 	"/>
	<polygon points="7650.8,3570.4 7501.4,3570.4 7812.3,4203.5 7962.3,4203.5 	"/>
	<rect x="7207.1" y="3450.6" width="737.5" height="135.2"/>
	<rect x="8401.5" y="3027.9" width="130.1" height="273.2"/>
	<rect x="8138" y="3105.5" width="1074.6" height="120.4"/>
	<rect x="8818.5" y="3027.9" width="130.1" height="273.2"/>
	<rect x="8217.2" y="3343.4" width="135.2" height="464.9"/>
	<rect x="9002.1" y="3343.4" width="135.2" height="464.9"/>
	<rect x="8609.7" y="3790" width="139.7" height="413.5"/>
</g>
<g>
	<polygon points="684.5,4039.8 526.5,4039.8 526.5,3636.6 342.2,3636.6 342.2,4039.8 184.2,4039.8 184.2,3155.7 0,3155.7 0,4039.8 
		0,4039.8 0,4203.5 0,4203.5 184.2,4203.5 342.2,4203.5 526.5,4203.5 684.5,4203.5 868.7,4203.5 868.7,4039.8 868.7,3324.6 
		684.5,3324.6 	"/>
	<polygon points="6627,3324.6 6463.3,3324.6 6463.3,3155.7 6279,3155.7 6279,3324.6 6115.3,3324.6 6115.3,3499.1 6279,3499.1 
		6279,4203.5 6463.3,4203.5 6463.3,3499.1 6627,3499.1 	"/>
	<polygon points="2636.4,3324.6 2524,4203.5 2550.3,4203.5 2708.3,4203.5 3243.3,4203.5 3243.3,4039.8 2729.4,4039.8 2797.8,3499.1 
		3243.3,3499.1 3243.3,3324.6 2820.6,3324.6 	"/>
	<path d="M1567.5,3324.6h-26.8h-146h-70.7h-113.5l-112.4,879h184.2l31.9-251h306.3l31.9,251h184.2l-111.8-879H1567.5z M1337,3778
		l35.4-278.9h190.5l35.4,278.9H1337z"/>
	<polygon points="3956.9,3324.6 3649.4,3324.6 3649.4,2883.1 3465.2,2883.1 3465.2,3324.6 3465.2,3499.1 3465.2,4203.5 
		3649.4,4203.5 3649.4,3499.1 3956.9,3499.1 3956.9,4203.5 4140.6,4203.5 4140.6,3324.6 4018.5,3324.6 	"/>
	<polygon points="2247.4,3155.7 2063.2,3155.7 2063.2,3324.6 1899.4,3324.6 1899.4,3499.1 2063.2,3499.1 2063.2,4203.5 
		2247.4,4203.5 2247.4,3499.1 2411.1,3499.1 2411.1,3324.6 2247.4,3324.6 	"/>
	<path d="M4858.1,3324.6h-306.9H4367l0,0v174.5l0,0v540.7V4203h184.2h306.9h184.2v-163.1v-715.3l0,0H4858.1z M4551.3,4039.8v-540.7
		h306.9v540.7H4551.3z"/>
	<polygon points="5757.1,4039.8 5449.6,4039.8 5449.6,3499.1 5265.4,3499.1 5265.4,4039.8 5265.4,4203.5 5449.6,4203.5 
		5757.1,4203.5 5940.8,4203.5 5940.8,4203.5 5940.8,3330.3 5757.1,3330.3 	"/>
</g>
</svg>
